<svg xmlns="http://www.w3.org/2000/svg" width="32" height="31" viewBox="0 0 32 31">
    <path fill="#10B7DD" fill-rule="evenodd" d="M31.75 15.1l-3.06-3.49.43-4.61c.014-.47-.302-.886-.76-.999l-4.519-1-2.37-4c-.255-.41-.77-.579-1.22-.4l-4.259 1.79-4.259-1.84c-.45-.179-.964-.01-1.22.4l-2.37 4-4.519 1c-.457.113-.773.53-.76 1l.43 4.61L.234 15.1c-.308.37-.308.909 0 1.28l3.06 3.489-.43 4.61c-.013.47.303.886.76 1l4.52.999 2.37 4c.255.41.77.58 1.22.4l4.258-1.79 4.26 1.84c.12.05.25.078.38.08.344-.006.66-.187.84-.48l2.37-4 4.519-1c.457-.113.773-.53.76-1l-.43-4.609 3.06-3.49c.337-.379.337-.95 0-1.33zm-8.109-1.71l-7.359 7.349-.7.71c-.188.187-.444.291-.71.29-.265.001-.52-.103-.71-.29l-.71-.71-3.729-3.73c-.189-.187-.295-.443-.295-.71 0-.266.106-.522.295-.71l.71-.7c.39-.387 1.02-.387 1.41 0l3 3 6.649-6.639c.39-.387 1.02-.387 1.41 0l.71.7c.199.185.315.442.32.714.006.271-.099.533-.29.726z"/>
</svg>
