<svg xmlns="http://www.w3.org/2000/svg" width="32" height="32" viewBox="0 0 32 32">
    <path fill="#10B7DD" fill-rule="evenodd" d="M31.254 23.51l-6.36-6.36c3.093-4.586 2.298-10.756-1.856-14.41-4.154-3.653-10.375-3.653-14.529 0-4.154 3.654-4.948 9.824-1.855 14.41l-6.36 6.36c-.262.262-.358.646-.25 1 .107.353.399.618.76.69l4.8 1 1 4.8c.072.361.337.653.69.76.096.014.194.014.29 0 .265.002.52-.103.71-.29l7.48-7.48 7.52 7.52c.188.187.444.292.71.29.096.014.194.014.29 0 .352-.107.617-.399.69-.76l1-4.8 4.8-1c.36-.072.653-.337.76-.69.115-.373.001-.78-.29-1.04z"/>
</svg>
