<svg xmlns="http://www.w3.org/2000/svg" width="32" height="32" viewBox="0 0 32 32">
    <path fill="#10B7DD" fill-rule="evenodd" d="M20 8c6.627 0 12 5.373 12 12s-5.373 12-12 12S8 26.627 8 20 13.373 8 20 8zm.52 4h-1c-.552 0-1 .448-1 1v8.1c-.036.297.063.594.27.81l3.65 3.65c.39.388 1.02.388 1.41 0l.71-.71c.393-.385.402-1.014.02-1.41l-3.06-3.06V13c0-.552-.448-1-1-1zM20 0c.552 0 1 .448 1 1v5h-1c-4.42.002-8.58 2.091-11.22 5.636C6.139 15.181 5.327 19.764 6.59 24H1c-.552 0-1-.448-1-1V1c0-.552.448-1 1-1zM6 8H4c-.552 0-1 .448-1 1v1c0 .552.448 1 1 1h2c.552 0 1-.448 1-1V9c0-.552-.448-1-1-1zm7-5H4c-.552 0-1 .448-1 1v1c0 .552.448 1 1 1h9c.552 0 1-.448 1-1V4c0-.552-.448-1-1-1z"/>
</svg>
