<svg xmlns="http://www.w3.org/2000/svg" width="26" height="32" viewBox="0 0 26 32">
    <path fill="#45DD97" fill-rule="evenodd" stroke="#45DD97" d="M.668.669C11.671.5 17.757.589 21.254.739c1.94.083 3.07.183 3.728.299.132.022.24.044.33.066h0l.188 29.83c0 .155-.065.295-.168.397-.106.105-.253.169-.415.169h0H1.083c-.162 0-.309-.064-.415-.169C.565 31.23.5 31.09.5 30.933h0V1.067C.5.91.565.77.668.669zM13 25.633c-.586 0-1.116.235-1.5.613-.387.38-.625.907-.625 1.487 0 .581.238 1.107.625 1.488.384.378.914.612 1.5.612s1.116-.234 1.5-.612c.387-.38.625-.907.625-1.488 0-.58-.238-1.107-.625-1.487-.384-.378-.914-.613-1.5-.613zM23.25 2.7H2.75v21.267h20.5V2.7z"/>
</svg>
